<svg width="48" height="48" viewBox="0 0 48 48" fill="none" xmlns="http://www.w3.org/2000/svg">
<path d="M34.9322 5.33155C34.9473 5.25781 35.0527 5.25781 35.0678 5.33155C35.85 9.15894 38.8411 12.15 42.6685 12.9323C42.7422 12.9474 42.7422 13.0527 42.6685 13.0678C38.8411 13.8501 35.85 16.8412 35.0678 20.6686C35.0527 20.7423 34.9473 20.7423 34.9322 20.6686C34.15 16.8412 31.1589 13.8501 27.3315 13.0678C27.2577 13.0527 27.2577 12.9474 27.3315 12.9323C31.1589 12.15 34.15 9.15894 34.9322 5.33155Z" stroke="url(#paint0_linear_201_445)" stroke-width="3"/>
<path d="M43.4375 0.752147C43.5626 0.139909 44.4374 0.139909 44.5626 0.752148C44.8389 2.10434 45.8957 3.16106 47.2478 3.43744C47.8601 3.56258 47.8601 4.43735 47.2478 4.56249C45.8957 4.83887 44.8389 5.89559 44.5626 7.24778C44.4374 7.86002 43.5626 7.86002 43.4375 7.24778C43.1611 5.89559 42.1044 4.83887 40.7522 4.56249C40.14 4.43735 40.14 3.56258 40.7522 3.43744C42.1044 3.16106 43.1611 2.10434 43.4375 0.752147Z" fill="url(#paint1_linear_201_445)"/>
<path d="M22.2305 13C21.4568 13.1298 20.7104 13.3398 20 13.6211C15.8999 15.2449 13 19.2455 13 23.9234C13 30.0409 17.9592 35 24.0766 35C28.7545 35 32.7551 32.1002 34.3789 28C34.6602 27.2896 34.8702 26.5432 35 25.7695M27.8 5.38007C26.5722 5.13083 25.3014 5 24 5C13.5066 5 5 13.5066 5 24C5 34.4934 13.5066 43 24 43C34.4934 43 43 34.4934 43 24C43 22.3598 42.7922 20.7682 42.4014 19.25M27.5 24C27.5 25.933 25.933 27.5 24 27.5C22.067 27.5 20.5 25.933 20.5 24C20.5 22.067 22.067 20.5 24 20.5C25.933 20.5 27.5 22.067 27.5 24Z" stroke="#2C49FA" stroke-width="3" stroke-linecap="round"/>
<defs>
<linearGradient id="paint0_linear_201_445" x1="35" y1="5.27625" x2="35" y2="20.7239" gradientUnits="userSpaceOnUse">
<stop stop-color="#2C49FA"/>
<stop offset="1" stop-color="white"/>
</linearGradient>
<linearGradient id="paint1_linear_201_445" x1="44" y1="0.292969" x2="44" y2="7.70696" gradientUnits="userSpaceOnUse">
<stop stop-color="#2C49FA"/>
<stop offset="1" stop-color="white"/>
</linearGradient>
</defs>
</svg>
