<svg width="48" height="48" viewBox="0 0 48 48" fill="none" xmlns="http://www.w3.org/2000/svg">
<path d="M18.8236 6.6815C19.6793 6.45222 20.9713 6.27776 22.0266 6.16223C22.4757 6.11306 22.7003 6.08847 23.1813 6.07457C23.48 6.06593 24.1646 6.08273 24.4626 6.10601C24.9423 6.14348 25.1599 6.17819 25.5953 6.2476C27.5286 6.55584 30.5369 7.14474 32 7.99997M31.0804 21.5146L29.8626 24.9167C29.33 26.4045 29.0637 27.1485 28.6366 27.7781C28.2581 28.3362 27.7882 28.8264 27.2467 29.2283C26.6357 29.6817 25.9037 29.9793 24.4398 30.5744L19.8635 32.435C18.9975 32.7871 18.5644 32.9632 18.2452 32.8816C17.9669 32.8104 17.7327 32.623 17.6022 32.3671C17.4525 32.0737 17.5292 31.6125 17.6826 30.6903L18.4042 26.3522C18.6944 24.6077 18.8394 23.7354 19.202 22.9735C19.5232 22.2988 19.9675 21.69 20.5122 21.1785C21.1272 20.6009 21.9138 20.1968 23.4868 19.3886L36.0724 12.9222C36.8104 12.543 37.1795 12.3534 37.5975 12.3276C37.9344 12.3067 38.3618 12.3994 38.6599 12.5578C39.0297 12.7545 39.2517 13.0351 39.6957 13.5964C41.3366 15.6707 42.5905 18.1065 43.3185 20.8236C46.1773 31.493 39.8457 42.4597 29.1764 45.3185C18.5071 48.1774 7.54032 41.8457 4.68148 31.1764C3.94359 28.4226 3.81797 25.6489 4.22117 23" stroke="#2C49FA" stroke-width="3" stroke-linecap="round"/>
<path d="M9.94071 6.29009C9.9539 6.22557 10.0461 6.22557 10.0593 6.29009C10.7438 9.63906 13.361 12.2562 16.7099 12.9408C16.7745 12.9539 16.7745 13.0461 16.7099 13.0593C13.361 13.7438 10.7438 16.361 10.0593 19.71C10.0461 19.7745 9.9539 19.7745 9.94071 19.71C9.25621 16.361 6.63902 13.7438 3.29005 13.0593C3.22553 13.0461 3.22553 12.9539 3.29005 12.9408C6.63902 12.2562 9.25621 9.63906 9.94071 6.29009Z" stroke="url(#paint0_linear_201_435)" stroke-width="3"/>
<defs>
<linearGradient id="paint0_linear_201_435" x1="10" y1="6.2417" x2="10" y2="19.7584" gradientUnits="userSpaceOnUse">
<stop stop-color="#2C49FA"/>
<stop offset="1" stop-color="white"/>
</linearGradient>
</defs>
</svg>
