<svg width="395" height="107" viewBox="0 0 395 107" fill="none" xmlns="http://www.w3.org/2000/svg">
<path d="M4.58107 85V43.7704H17.5608V85H4.58107ZM30.9646 85V60.907C30.9646 58.8144 30.3142 57.2025 29.0134 56.0714C27.7692 54.8837 26.2139 54.2899 24.3475 54.2899C23.0467 54.2899 21.8873 54.5726 20.8693 55.1382C19.8513 55.6472 19.0312 56.3824 18.4091 57.3439C17.8436 58.3054 17.5608 59.4931 17.5608 60.907L12.5555 58.7013C12.5555 55.421 13.2625 52.6214 14.6764 50.3026C16.0903 47.9273 18.0132 46.1175 20.4451 44.8732C22.8771 43.5724 25.6201 42.922 28.6741 42.922C31.5585 42.922 34.1318 43.5724 36.3941 44.8732C38.7129 46.174 40.551 47.9838 41.9083 50.3026C43.2657 52.6214 43.9443 55.3927 43.9443 58.6164V85H30.9646ZM57.3482 85V60.907C57.3482 58.8144 56.6978 57.2025 55.397 56.0714C54.1528 54.8837 52.5975 54.2899 50.7311 54.2899C49.4303 54.2899 48.2709 54.5726 47.2529 55.1382C46.2349 55.6472 45.4148 56.3824 44.7927 57.3439C44.2271 58.3054 43.9443 59.4931 43.9443 60.907L36.4789 59.8889C36.592 56.3824 37.4121 53.385 38.9391 50.8965C40.5227 48.3514 42.587 46.4002 45.132 45.0429C47.7336 43.629 50.6463 42.922 53.87 42.922C57.0372 42.922 59.8367 43.6007 62.2686 44.9581C64.7571 46.2588 66.7083 48.1535 68.1222 50.642C69.5927 53.0739 70.3279 56.0148 70.3279 59.4648V85H57.3482ZM99.006 85.9332C94.538 85.9332 90.5508 85.0283 87.0443 83.2185C83.5944 81.3521 80.8797 78.7788 78.9002 75.4985C76.9207 72.2182 75.931 68.5138 75.931 64.3852C75.931 60.2566 76.8924 56.5804 78.8154 53.3567C80.7948 50.0764 83.453 47.5031 86.7898 45.6367C90.1266 43.7704 93.8876 42.8372 98.0728 42.8372C102.145 42.8372 105.736 43.7138 108.847 45.4671C111.957 47.2203 114.389 49.6522 116.143 52.7628C117.952 55.8734 118.857 59.4365 118.857 63.452C118.857 64.1872 118.801 64.979 118.688 65.8274C118.631 66.6192 118.49 67.5523 118.263 68.6269L82.7177 68.7118V59.8041L112.749 59.7193L107.15 63.452C107.094 61.0766 106.726 59.1254 106.047 57.5984C105.369 56.0148 104.351 54.8271 102.993 54.0354C101.692 53.187 100.081 52.7628 98.1576 52.7628C96.1216 52.7628 94.3401 53.2436 92.8131 54.205C91.3426 55.1099 90.1832 56.4107 89.3348 58.1074C88.5431 59.8041 88.1472 61.8684 88.1472 64.3003C88.1472 66.7323 88.5713 68.8249 89.4197 70.5781C90.3246 72.2748 91.5688 73.6039 93.1524 74.5653C94.7925 75.4702 96.7155 75.9227 98.9212 75.9227C100.957 75.9227 102.795 75.5834 104.435 74.9047C106.076 74.1694 107.518 73.0949 108.762 71.681L115.888 78.8071C113.852 81.1824 111.392 82.964 108.507 84.1517C105.623 85.3393 102.456 85.9332 99.006 85.9332ZM152.354 85V61.5008C152.354 59.3517 151.676 57.6267 150.318 56.3259C149.018 54.9685 147.349 54.2899 145.313 54.2899C143.899 54.2899 142.655 54.6009 141.58 55.223C140.506 55.7886 139.657 56.637 139.035 57.7681C138.413 58.8427 138.102 60.0869 138.102 61.5008L133.097 59.0406C133.097 55.8169 133.804 52.9891 135.218 50.5571C136.632 48.1252 138.583 46.2588 141.071 44.9581C143.616 43.6007 146.473 42.922 149.64 42.922C152.694 42.922 155.38 43.6573 157.699 45.1277C160.074 46.5416 161.941 48.4363 163.298 50.8116C164.655 53.187 165.334 55.7886 165.334 58.6164V85H152.354ZM125.122 85V43.7704H138.102V85H125.122ZM179.027 85V26.7186H192.007V85H179.027ZM169.695 54.7989V43.7704H201.338V54.7989H169.695ZM226.08 85.9332C221.839 85.9332 217.993 85 214.543 83.1336C211.149 81.2107 208.463 78.6091 206.484 75.3289C204.504 72.0486 203.514 68.3724 203.514 64.3003C203.514 60.2283 204.504 56.5804 206.484 53.3567C208.463 50.133 211.149 47.5879 214.543 45.7216C217.936 43.7986 221.782 42.8372 226.08 42.8372C230.379 42.8372 234.224 43.7704 237.618 45.6367C241.011 47.5031 243.698 50.0764 245.677 53.3567C247.657 56.5804 248.646 60.2283 248.646 64.3003C248.646 68.3724 247.657 72.0486 245.677 75.3289C243.698 78.6091 241.011 81.2107 237.618 83.1336C234.224 85 230.379 85.9332 226.08 85.9332ZM226.08 74.1412C227.947 74.1412 229.587 73.7453 231.001 72.9535C232.415 72.1051 233.489 70.9457 234.224 69.4753C235.016 67.9482 235.412 66.2233 235.412 64.3003C235.412 62.3774 235.016 60.709 234.224 59.2951C233.433 57.8246 232.33 56.6935 230.916 55.9017C229.559 55.0534 227.947 54.6292 226.08 54.6292C224.271 54.6292 222.659 55.0534 221.245 55.9017C219.831 56.6935 218.728 57.8246 217.936 59.2951C217.144 60.7656 216.749 62.4623 216.749 64.3852C216.749 66.2515 217.144 67.9482 217.936 69.4753C218.728 70.9457 219.831 72.1051 221.245 72.9535C222.659 73.7453 224.271 74.1412 226.08 74.1412ZM255.108 85V43.7704H268.088V85H255.108ZM268.088 62.3492L262.659 58.1074C263.733 53.3001 265.543 49.5674 268.088 46.9092C270.633 44.2511 274.168 42.922 278.692 42.922C280.672 42.922 282.397 43.2331 283.867 43.8552C285.394 44.4208 286.723 45.3257 287.855 46.5699L280.135 56.3259C279.569 55.7038 278.862 55.223 278.014 54.8837C277.165 54.5444 276.204 54.3747 275.129 54.3747C272.98 54.3747 271.255 55.0534 269.954 56.4107C268.71 57.7115 268.088 59.691 268.088 62.3492Z" fill="url(#paint0_linear_439_17)"/>
<mask id="path-2-outside-1_439_17" maskUnits="userSpaceOnUse" x="294" y="23" width="86" height="64" fill="black">
<rect fill="white" x="294" y="23" width="86" height="64"/>
<path d="M296.769 85V25.1067H310.088V85H296.769ZM317.126 85L340.88 25.1067H352.927L376.426 85H362.343L344.358 35.2869H349.194L330.954 85H317.126ZM330.615 74.1412V63.2823H363.276V74.1412H330.615Z"/>
</mask>
<path d="M296.769 85H294.769V87H296.769V85ZM296.769 25.1067V23.1067H294.769V25.1067H296.769ZM310.088 25.1067H312.088V23.1067H310.088V25.1067ZM310.088 85V87H312.088V85H310.088ZM296.769 85H298.769V25.1067H296.769H294.769V85H296.769ZM296.769 25.1067V27.1067H310.088V25.1067V23.1067H296.769V25.1067ZM310.088 25.1067H308.088V85H310.088H312.088V25.1067H310.088ZM310.088 85V83H296.769V85V87H310.088V85ZM317.126 85L315.267 84.2627L314.182 87H317.126V85ZM340.88 25.1067V23.1067H339.522L339.021 24.3694L340.88 25.1067ZM352.927 25.1067L354.788 24.3763L354.29 23.1067H352.927V25.1067ZM376.426 85V87H379.359L378.288 84.2695L376.426 85ZM362.343 85L360.463 85.6804L360.94 87H362.343V85ZM344.358 35.2869V33.2869H341.508L342.478 35.9673L344.358 35.2869ZM349.194 35.2869L351.072 35.9758L352.058 33.2869H349.194V35.2869ZM330.954 85V87H332.351L332.832 85.6889L330.954 85ZM330.615 74.1412H328.615V76.1412H330.615V74.1412ZM330.615 63.2823V61.2823H328.615V63.2823H330.615ZM363.276 63.2823H365.276V61.2823H363.276V63.2823ZM363.276 74.1412V76.1412H365.276V74.1412H363.276ZM317.126 85L318.986 85.7373L342.739 25.8441L340.88 25.1067L339.021 24.3694L315.267 84.2627L317.126 85ZM340.88 25.1067V27.1067H352.927V25.1067V23.1067H340.88V25.1067ZM352.927 25.1067L351.065 25.8372L374.564 85.7305L376.426 85L378.288 84.2695L354.788 24.3763L352.927 25.1067ZM376.426 85V83H362.343V85V87H376.426V85ZM362.343 85L364.224 84.3196L346.239 34.6065L344.358 35.2869L342.478 35.9673L360.463 85.6804L362.343 85ZM344.358 35.2869V37.2869H349.194V35.2869V33.2869H344.358V35.2869ZM349.194 35.2869L347.316 34.598L329.077 84.3111L330.954 85L332.832 85.6889L351.072 35.9758L349.194 35.2869ZM330.954 85V83H317.126V85V87H330.954V85ZM330.615 74.1412H332.615V63.2823H330.615H328.615V74.1412H330.615ZM330.615 63.2823V65.2823H363.276V63.2823V61.2823H330.615V63.2823ZM363.276 63.2823H361.276V74.1412H363.276H365.276V63.2823H363.276ZM363.276 74.1412V72.1412H330.615V74.1412V76.1412H363.276V74.1412Z" fill="url(#paint1_linear_439_17)" mask="url(#path-2-outside-1_439_17)"/>
<defs>
<linearGradient id="paint0_linear_439_17" x1="220.701" y1="-6.36643" x2="239.753" y2="176.566" gradientUnits="userSpaceOnUse">
<stop stop-color="#0051FF"/>
<stop offset="0.677885" stop-color="#002B19"/>
</linearGradient>
<linearGradient id="paint1_linear_439_17" x1="291" y1="45.4893" x2="447.5" y2="135" gradientUnits="userSpaceOnUse">
<stop stop-color="#0051FF"/>
<stop offset="1" stop-color="#002B19"/>
</linearGradient>
</defs>
</svg>
