<svg width="48" height="48" viewBox="0 0 48 48" fill="none" xmlns="http://www.w3.org/2000/svg">
<path d="M37.9407 28.2901C37.9539 28.2256 38.0461 28.2256 38.0593 28.2901C38.7438 31.6391 41.361 34.2562 44.7099 34.9408C44.7744 34.9539 44.7744 35.0461 44.7099 35.0593C41.361 35.7438 38.7438 38.361 38.0593 41.71C38.0461 41.7745 37.9539 41.7745 37.9407 41.71C37.2562 38.361 34.639 35.7438 31.29 35.0593C31.2255 35.0461 31.2255 34.9539 31.29 34.9408C34.639 34.2562 37.2562 31.6391 37.9407 28.2901Z" stroke="url(#paint0_linear_201_440)" stroke-width="3"/>
<path d="M24.6362 8.04481C23.8325 8.24574 23.3439 9.06014 23.5448 9.86383C23.7457 10.6675 24.5601 11.1562 25.3638 10.9552L25 9.50003L24.6362 8.04481ZM21.3631 42.4449L21.6721 40.9771H21.6721L21.3631 42.4449ZM12.6223 40.6047L12.9313 39.1369L12.6223 40.6047ZM41.5 24C41.5 24.8285 42.1716 25.5 43 25.5C43.8284 25.5 44.5 24.8285 44.5 24H43H41.5ZM29.059 43.4678C29.8697 43.2972 30.3885 42.5017 30.2178 41.691C30.0472 40.8804 29.2516 40.3615 28.441 40.5322L28.75 42L29.059 43.4678ZM26.6369 42.4449L26.3279 40.9771H26.3279L26.6369 42.4449ZM23.3368 42.7971L23.4611 41.3023L23.4611 41.3023L23.3368 42.7971ZM24.6632 42.7971L24.5389 41.3023L24.5389 41.3023L24.6632 42.7971ZM5.49486 36.5178L4.11858 37.1143H4.11858L5.49486 36.5178ZM7.53097 39.0272L6.66371 40.251H6.66371L7.53097 39.0272ZM38.7717 6.95223L38.3288 8.38534V8.38534L38.7717 6.95223ZM42.1316 9.57555L43.4145 8.79826V8.79826L42.1316 9.57555ZM5.00316 13.2002L6.50237 13.2488L5.00316 13.2002ZM12.191 9.0468C13.0016 9.21746 13.7972 8.69865 13.9678 7.88799C14.1385 7.07733 13.6197 6.28181 12.809 6.11115L12.5 7.57897L12.191 9.0468ZM12.045 7.48642L11.7838 8.96349L12.045 7.48642ZM23.5 16.1807C23.5 17.0092 24.1716 17.6807 25 17.6807C25.8284 17.6807 26.5 17.0092 26.5 16.1807H25H23.5ZM22.3558 7.31238L23.1948 6.06893L22.3558 7.31238ZM19.2372 5.20826L18.3983 6.45171L19.2372 5.20826ZM14.8697 35.8652L15.2248 34.4078L15.2248 34.4078L14.8697 35.8652ZM15.4533 36.0074L15.0982 37.4648H15.0982L15.4533 36.0074ZM22.2297 43.5745C22.547 44.3398 23.4246 44.7029 24.1898 44.3857C24.9551 44.0684 25.3183 43.1908 25.001 42.4256L23.6154 43L22.2297 43.5745ZM5 31.2106H6.5V13.6644H5H3.5V31.2106H5ZM25 9.50003L25.3638 10.9552L31.4355 9.43733L31.0717 7.98211L30.7079 6.5269L24.6362 8.04481L25 9.50003ZM21.3631 42.4449L21.6721 40.9771L12.9313 39.1369L12.6223 40.6047L12.3133 42.0725L21.0541 43.9127L21.3631 42.4449ZM43 17.2955H41.5V24H43H44.5V17.2955H43ZM28.75 42L28.441 40.5322L26.3279 40.9771L26.6369 42.4449L26.9459 43.9127L29.059 43.4678L28.75 42ZM21.3631 42.4449L21.054 43.9127C22.0037 44.1126 22.6011 44.2411 23.2124 44.292L23.3368 42.7971L23.4611 41.3023C23.0787 41.2705 22.6915 41.1917 21.6721 40.9771L21.3631 42.4449ZM26.6369 42.4449L26.3279 40.9771C25.3085 41.1917 24.9213 41.2705 24.5389 41.3023L24.6632 42.7971L24.7876 44.292C25.3989 44.2411 25.9963 44.1126 26.946 43.9127L26.6369 42.4449ZM23.3368 42.7971L23.2124 44.292C23.7366 44.3356 24.2634 44.3356 24.7876 44.292L24.6632 42.7971L24.5389 41.3023C24.1802 41.3321 23.8198 41.3321 23.4611 41.3023L23.3368 42.7971ZM5 31.2106H3.5C3.5 32.5771 3.49905 33.683 3.56594 34.588C3.63422 35.5118 3.77837 36.3294 4.11858 37.1143L5.49486 36.5178L6.87115 35.9212C6.71649 35.5644 6.61321 35.1169 6.55778 34.3668C6.50095 33.5979 6.5 32.6211 6.5 31.2106H5ZM12.6223 40.6047L12.9313 39.1369C11.5512 38.8463 10.5954 38.6442 9.85473 38.4301C9.13219 38.2214 8.71552 38.0281 8.39823 37.8033L7.53097 39.0272L6.66371 40.251C7.36171 40.7456 8.13203 41.0551 9.022 41.3123C9.89378 41.5641 10.9761 41.791 12.3133 42.0725L12.6223 40.6047ZM5.49486 36.5178L4.11858 37.1143C4.66412 38.3729 5.54443 39.4579 6.66371 40.251L7.53097 39.0272L8.39823 37.8033C7.72666 37.3274 7.19847 36.6764 6.87115 35.9212L5.49486 36.5178ZM31.0717 7.98211L31.4355 9.43733C33.4951 8.9224 34.9444 8.56151 36.0801 8.38203C37.2048 8.2043 37.848 8.23676 38.3288 8.38534L38.7717 6.95223L39.2146 5.51912C38.0943 5.17285 36.9205 5.212 35.6119 5.4188C34.3143 5.62386 32.7141 6.02533 30.7079 6.5269L31.0717 7.98211ZM43 17.2955H44.5C44.5 15.2275 44.5014 13.5777 44.3856 12.2691C44.2689 10.9495 44.0222 9.8012 43.4145 8.79826L42.1316 9.57555L40.8487 10.3528C41.1094 10.7832 41.2969 11.3994 41.3973 12.5335C41.4986 13.6789 41.5 15.1724 41.5 17.2955H43ZM38.7717 6.95223L38.3288 8.38534C39.3813 8.71063 40.2779 9.41067 40.8487 10.3528L42.1316 9.57555L43.4145 8.79826C42.4631 7.228 40.9688 6.06126 39.2146 5.51912L38.7717 6.95223ZM5 13.6644H6.5C6.5 13.407 6.50021 13.3154 6.50237 13.2488L5.00316 13.2002L3.50394 13.1515C3.49979 13.2794 3.5 13.4324 3.5 13.6644H5ZM12.5 7.57897L12.809 6.11115C12.582 6.06336 12.4323 6.03163 12.3063 6.00934L12.045 7.48642L11.7838 8.96349C11.8494 8.9751 11.9391 8.99377 12.191 9.0468L12.5 7.57897ZM5.00316 13.2002L6.50237 13.2488C6.59121 10.5104 9.08584 8.48629 11.7838 8.96349L12.045 7.48642L12.3063 6.00934C7.80974 5.21401 3.65201 8.58757 3.50394 13.1515L5.00316 13.2002ZM25 16.1807H26.5V12.2862H25H23.5V16.1807H25ZM22.3558 7.31238L23.1948 6.06893L20.0762 3.96481L19.2372 5.20826L18.3983 6.45171L21.5169 8.55582L22.3558 7.31238ZM13 8.52412H11.5V33.4853H13H14.5V8.52412H13ZM14.8697 35.8652L14.5146 37.3226L15.0982 37.4648L15.4533 36.0074L15.8084 34.55L15.2248 34.4078L14.8697 35.8652ZM15.4533 36.0074L15.0982 37.4648C18.3134 38.2481 20.9624 40.5176 22.2297 43.5745L23.6154 43L25.001 42.4256C23.3674 38.4851 19.9528 35.5598 15.8084 34.55L15.4533 36.0074ZM13 33.4853H11.5C11.5 35.3064 12.7452 36.8915 14.5146 37.3226L14.8697 35.8652L15.2248 34.4078C14.7994 34.3042 14.5 33.9231 14.5 33.4853H13ZM19.2372 5.20826L20.0762 3.96481C16.4232 1.50018 11.5 4.11748 11.5 8.52412H13H14.5C14.5 6.5211 16.7378 5.33142 18.3983 6.45171L19.2372 5.20826ZM25 12.2862H26.5C26.5 9.79323 25.2613 7.46323 23.1948 6.06893L22.3558 7.31238L21.5169 8.55582C22.7568 9.3924 23.5 10.7904 23.5 12.2862H25Z" fill="#2C49FA"/>
<defs>
<linearGradient id="paint0_linear_201_440" x1="38" y1="28.2417" x2="38" y2="41.7584" gradientUnits="userSpaceOnUse">
<stop stop-color="#2C49FA"/>
<stop offset="1" stop-color="white"/>
</linearGradient>
</defs>
</svg>
